<svg role="img" viewBox="0 0 24 24" xmlns="http://www.w3.org/2000/svg"><title>Java</title><path fill="#ED8B00" d="M11.602 0c.264.444.202 1.054.218 1.58.077 2.459-.924 4.707-1.921 6.892-1.396 3.064-3.136 6.084-3.791 9.387-.197.994-.206 2.05-.147 3.062.062 1.058.286 2.155 1.066 2.809.567.476 1.346.593 2.058.468.96-.168 1.815-.71 2.545-1.32.748-.624 1.411-1.353 1.95-2.159a11.1 11.1 0 0 0 1.258-2.607c.334-.963.486-1.996.671-2.998.113-.61.16-1.233.151-1.854 0-.108-.005-.224-.037-.323.08-.225.433-.178.618-.184 1.206-.04 2.441.202 3.518.732.616.304 1.157.731 1.621 1.228.465.498.814 1.096 1.109 1.722.597 1.272.778 2.7.747 4.103-.023 1.04-.153 2.086-.532 3.056-.251.642-.647 1.229-1.077 1.761-.432.536-.928 1.026-1.464 1.469a9.697 9.697 0 0 1-1.802 1.171c-.642.315-1.332.542-2.036.684-1.01.205-2.072.23-3.089.068a8.318 8.318 0 0 1-2.955-1.053 7.828 7.828 0 0 1-2.312-2.061c-1.127-1.503-1.637-3.414-1.55-5.263.08-1.7.534-3.344 1.173-4.904 1.243-3.033 2.92-5.894 4.542-8.736.852-1.493 1.713-2.995 2.404-4.577.411-.94.757-1.91 1.01-2.909.117-.464.212-.934.331-1.396.119-.462.247-.923.366-1.385.118-.462.222-.93.284-1.402.056-.425.044-.863-.047-1.282A8.675 8.675 0 0 0 11.602 0zm5.132 23.336c1.696.082 3.424-.52 4.674-1.68 1.248-1.157 1.944-2.85 2.112-4.57.172-1.758-.198-3.576-1.096-5.076-.897-1.5-2.298-2.673-3.953-3.232-.82-.276-1.687-.41-2.551-.433a9.8 9.8 0 0 0-2.529.201c.21.945.342 1.91.353 2.873.011.961-.09 1.93-.306 2.862-.213.918-.54 1.803-.956 2.641-.413.83-1.025 1.543-1.72 2.115-.694.572-1.488 1.026-2.33 1.341a9.53 9.53 0 0 1-2.544.549c.895.733 1.97 1.243 3.102 1.514 1.13.27 2.308.337 3.46.223 1.144-.114 2.274-.436 3.284-.928z"/></svg>